<mxfile host="app.diagrams.net" modified="2022-09-02T21:51:24.642Z" agent="5.0 (Windows NT 10.0; Win64; x64) AppleWebKit/537.36 (KHTML, like Gecko) Chrome/104.0.0.0 Safari/537.36" etag="0B-sRYHGfSEAUVorlxdo" version="20.2.8" type="github">
  <diagram id="aHsPBc_aO3nDSjiR1rf5" name="Page-1">
    <mxGraphModel dx="868" dy="450" grid="1" gridSize="10" guides="1" tooltips="1" connect="1" arrows="1" fold="1" page="1" pageScale="1" pageWidth="850" pageHeight="1100" math="0" shadow="0">
      <root>
        <mxCell id="0" />
        <mxCell id="1" parent="0" />
        <mxCell id="fyN2psvlprjkAhxFCCwb-1" value="ALGORITHM&lt;br&gt;- Start&lt;br&gt;- Accept number and initialize sum to zero&lt;br&gt;- Initialize count to zero and count to be less than the highest inputted number (i.e - 3)&lt;br&gt;- Yes; square the number, sum the square of the numbers&lt;br&gt;- Print sum&lt;br&gt;- Define count&amp;nbsp;&lt;br&gt;- No; print sum&lt;br&gt;- Stop&lt;br&gt;" style="whiteSpace=wrap;html=1;" vertex="1" parent="1">
          <mxGeometry x="440" y="10" width="400" height="180" as="geometry" />
        </mxCell>
        <mxCell id="fyN2psvlprjkAhxFCCwb-2" value="Start" style="ellipse;whiteSpace=wrap;html=1;" vertex="1" parent="1">
          <mxGeometry x="120" y="20" width="130" height="70" as="geometry" />
        </mxCell>
        <mxCell id="fyN2psvlprjkAhxFCCwb-13" value="" style="edgeStyle=orthogonalEdgeStyle;rounded=0;orthogonalLoop=1;jettySize=auto;html=1;" edge="1" parent="1" source="fyN2psvlprjkAhxFCCwb-3" target="fyN2psvlprjkAhxFCCwb-4">
          <mxGeometry relative="1" as="geometry" />
        </mxCell>
        <mxCell id="fyN2psvlprjkAhxFCCwb-3" value="N; Sum = 0" style="rounded=0;whiteSpace=wrap;html=1;" vertex="1" parent="1">
          <mxGeometry x="125" y="110" width="120" height="60" as="geometry" />
        </mxCell>
        <mxCell id="fyN2psvlprjkAhxFCCwb-14" value="" style="edgeStyle=orthogonalEdgeStyle;rounded=0;orthogonalLoop=1;jettySize=auto;html=1;" edge="1" parent="1" source="fyN2psvlprjkAhxFCCwb-4" target="fyN2psvlprjkAhxFCCwb-5">
          <mxGeometry relative="1" as="geometry" />
        </mxCell>
        <mxCell id="fyN2psvlprjkAhxFCCwb-4" value="count = 0" style="rounded=0;whiteSpace=wrap;html=1;" vertex="1" parent="1">
          <mxGeometry x="125" y="200" width="120" height="60" as="geometry" />
        </mxCell>
        <mxCell id="fyN2psvlprjkAhxFCCwb-15" value="" style="edgeStyle=orthogonalEdgeStyle;rounded=0;orthogonalLoop=1;jettySize=auto;html=1;" edge="1" parent="1" source="fyN2psvlprjkAhxFCCwb-5" target="fyN2psvlprjkAhxFCCwb-6">
          <mxGeometry relative="1" as="geometry" />
        </mxCell>
        <mxCell id="fyN2psvlprjkAhxFCCwb-5" value="Enter N" style="shape=parallelogram;perimeter=parallelogramPerimeter;whiteSpace=wrap;html=1;fixedSize=1;" vertex="1" parent="1">
          <mxGeometry x="125" y="300" width="120" height="60" as="geometry" />
        </mxCell>
        <mxCell id="fyN2psvlprjkAhxFCCwb-21" value="Yes" style="edgeStyle=orthogonalEdgeStyle;rounded=0;orthogonalLoop=1;jettySize=auto;html=1;" edge="1" parent="1" source="fyN2psvlprjkAhxFCCwb-6" target="fyN2psvlprjkAhxFCCwb-7">
          <mxGeometry relative="1" as="geometry" />
        </mxCell>
        <mxCell id="fyN2psvlprjkAhxFCCwb-6" value="Is count &amp;lt; N" style="rhombus;whiteSpace=wrap;html=1;" vertex="1" parent="1">
          <mxGeometry x="125" y="410" width="120" height="70" as="geometry" />
        </mxCell>
        <mxCell id="fyN2psvlprjkAhxFCCwb-22" value="" style="edgeStyle=orthogonalEdgeStyle;rounded=0;orthogonalLoop=1;jettySize=auto;html=1;" edge="1" parent="1" source="fyN2psvlprjkAhxFCCwb-7" target="fyN2psvlprjkAhxFCCwb-8">
          <mxGeometry relative="1" as="geometry" />
        </mxCell>
        <mxCell id="fyN2psvlprjkAhxFCCwb-7" value="Count = Count + 1" style="rounded=0;whiteSpace=wrap;html=1;" vertex="1" parent="1">
          <mxGeometry x="125" y="510" width="120" height="60" as="geometry" />
        </mxCell>
        <mxCell id="fyN2psvlprjkAhxFCCwb-8" value="square = N * N" style="rounded=0;whiteSpace=wrap;html=1;" vertex="1" parent="1">
          <mxGeometry x="125" y="620" width="120" height="60" as="geometry" />
        </mxCell>
        <mxCell id="fyN2psvlprjkAhxFCCwb-23" value="" style="edgeStyle=orthogonalEdgeStyle;rounded=0;orthogonalLoop=1;jettySize=auto;html=1;" edge="1" parent="1" source="fyN2psvlprjkAhxFCCwb-9" target="fyN2psvlprjkAhxFCCwb-10">
          <mxGeometry relative="1" as="geometry" />
        </mxCell>
        <mxCell id="fyN2psvlprjkAhxFCCwb-9" value="Sum = Sum + square" style="rounded=0;whiteSpace=wrap;html=1;" vertex="1" parent="1">
          <mxGeometry x="125" y="720" width="120" height="60" as="geometry" />
        </mxCell>
        <mxCell id="fyN2psvlprjkAhxFCCwb-34" value="" style="edgeStyle=none;rounded=0;orthogonalLoop=1;jettySize=auto;html=1;" edge="1" parent="1" source="fyN2psvlprjkAhxFCCwb-10" target="fyN2psvlprjkAhxFCCwb-11">
          <mxGeometry relative="1" as="geometry" />
        </mxCell>
        <mxCell id="fyN2psvlprjkAhxFCCwb-10" value="Print Sum&amp;nbsp;" style="shape=parallelogram;perimeter=parallelogramPerimeter;whiteSpace=wrap;html=1;fixedSize=1;" vertex="1" parent="1">
          <mxGeometry x="125" y="830" width="120" height="60" as="geometry" />
        </mxCell>
        <mxCell id="fyN2psvlprjkAhxFCCwb-11" value="Stop" style="ellipse;whiteSpace=wrap;html=1;" vertex="1" parent="1">
          <mxGeometry x="125" y="940" width="120" height="80" as="geometry" />
        </mxCell>
        <mxCell id="fyN2psvlprjkAhxFCCwb-12" value="" style="endArrow=classic;html=1;rounded=0;entryX=0.5;entryY=0;entryDx=0;entryDy=0;" edge="1" parent="1" target="fyN2psvlprjkAhxFCCwb-3">
          <mxGeometry width="50" height="50" relative="1" as="geometry">
            <mxPoint x="185" y="90" as="sourcePoint" />
            <mxPoint x="260" y="110" as="targetPoint" />
          </mxGeometry>
        </mxCell>
        <mxCell id="fyN2psvlprjkAhxFCCwb-16" value="start&amp;nbsp;&lt;br&gt;&lt;span style=&quot;white-space: pre;&quot;&gt;	&lt;/span&gt;highest number = N&lt;br&gt;&lt;span style=&quot;white-space: pre;&quot;&gt;	&lt;/span&gt;set sum = 0&lt;br&gt;&lt;span style=&quot;white-space: pre;&quot;&gt;	&lt;/span&gt;set count = 0&lt;br&gt;&lt;span style=&quot;white-space: pre;&quot;&gt;	&lt;/span&gt;enter Num&lt;br&gt;&lt;span style=&quot;white-space: pre;&quot;&gt;	&lt;/span&gt;if Count &amp;lt; N&lt;br&gt;&lt;span style=&quot;white-space: pre;&quot;&gt;	&lt;span style=&quot;white-space: pre;&quot;&gt;	&lt;/span&gt;&lt;/span&gt;then sqr = num * num&lt;br&gt;&lt;span style=&quot;white-space: pre;&quot;&gt;	&lt;span style=&quot;white-space: pre;&quot;&gt;	&lt;/span&gt;&lt;/span&gt;Sum = sum + sqr&lt;br&gt;&lt;span style=&quot;white-space: pre;&quot;&gt;	&lt;span style=&quot;white-space: pre;&quot;&gt;	&lt;/span&gt;&lt;/span&gt;print Sum&lt;br&gt;&lt;span style=&quot;white-space: pre;&quot;&gt;	&lt;/span&gt;Else&lt;br&gt;&lt;span style=&quot;white-space: pre;&quot;&gt;	&lt;span style=&quot;white-space: pre;&quot;&gt;	&lt;/span&gt;&lt;/span&gt;print Sum&lt;br&gt;end&lt;span style=&quot;white-space: pre;&quot;&gt;	&lt;/span&gt;" style="rounded=0;whiteSpace=wrap;html=1;align=left;" vertex="1" parent="1">
          <mxGeometry x="440" y="230" width="400" height="180" as="geometry" />
        </mxCell>
        <mxCell id="fyN2psvlprjkAhxFCCwb-28" value="" style="endArrow=classic;html=1;rounded=0;" edge="1" parent="1">
          <mxGeometry width="50" height="50" relative="1" as="geometry">
            <mxPoint x="130" y="444.5" as="sourcePoint" />
            <mxPoint x="50" y="445" as="targetPoint" />
          </mxGeometry>
        </mxCell>
        <mxCell id="fyN2psvlprjkAhxFCCwb-30" value="" style="endArrow=classic;html=1;rounded=0;" edge="1" parent="1">
          <mxGeometry width="50" height="50" relative="1" as="geometry">
            <mxPoint x="50" y="439" as="sourcePoint" />
            <mxPoint x="50" y="860" as="targetPoint" />
          </mxGeometry>
        </mxCell>
        <mxCell id="fyN2psvlprjkAhxFCCwb-33" value="No" style="edgeLabel;html=1;align=center;verticalAlign=middle;resizable=0;points=[];" vertex="1" connectable="0" parent="fyN2psvlprjkAhxFCCwb-30">
          <mxGeometry x="-0.1306" y="8" relative="1" as="geometry">
            <mxPoint as="offset" />
          </mxGeometry>
        </mxCell>
        <mxCell id="fyN2psvlprjkAhxFCCwb-31" value="" style="endArrow=classic;html=1;rounded=0;entryX=0;entryY=0.5;entryDx=0;entryDy=0;" edge="1" parent="1" target="fyN2psvlprjkAhxFCCwb-10">
          <mxGeometry width="50" height="50" relative="1" as="geometry">
            <mxPoint x="50" y="859.5" as="sourcePoint" />
            <mxPoint x="150" y="859.5" as="targetPoint" />
          </mxGeometry>
        </mxCell>
      </root>
    </mxGraphModel>
  </diagram>
</mxfile>
